<svg width="92" height="140" viewBox="0 0 92 140" fill="none" xmlns="http://www.w3.org/2000/svg">
<path d="M6.64077 134.55C6.64077 125.885 6.64077 117.221 6.64077 108.556C6.64077 97.7391 6.10975 86.7902 7.80325 76.0498C10.6089 58.2563 18.92 39.3696 30.8205 24.9613C39.5778 14.3585 50.9747 6.07116 65.7532 5.05526C75.4539 4.38841 81.5577 9.82476 84.9924 17.7083C87.5765 23.6395 86.8311 30.9693 86.678 37.2437C86.5878 40.9396 84.4212 44.1222 83.2777 47.5673C81.9001 51.7177 79.9967 55.8531 77.9012 59.7438C75.0329 65.0694 71.9827 69.9476 68.3688 74.8851C65.7652 78.4423 63.7791 82.8184 60.522 85.9498C55.6777 90.6073 51.9301 96.158 46.9209 100.721C43.9357 103.44 41.0657 106.129 37.9117 108.715C34.3766 111.613 31.5748 115.565 28.0886 118.827C25.1305 121.594 21.7297 123.665 18.7888 126.344C16.5981 128.34 13.0015 130.616 10.3026 132.062C8.64217 132.952 7.11784 135.447 5.59453 133.597" stroke="#686868" stroke-width="10" stroke-linecap="round"/>
</svg>
